<?xml version="1.0" encoding="UTF-8" standalone="no"?>
<!DOCTYPE svg PUBLIC "-//W3C//DTD SVG 1.1//EN" "http://www.w3.org/Graphics/SVG/1.1/DTD/svg11.dtd">
<svg width="100%" height="100%" viewBox="0 0 621 170" version="1.1" xmlns="http://www.w3.org/2000/svg" xmlns:xlink="http://www.w3.org/1999/xlink" xml:space="preserve" xmlns:serif="http://www.serif.com/" style="fill-rule:evenodd;clip-rule:evenodd;stroke-linejoin:round;stroke-miterlimit:2;">
    <g transform="matrix(1,0,0,1,-11422.8,-6965.34)">
        <g transform="matrix(0.499997,0,0,1,9856.23,6838.29)">
            <g transform="matrix(2.49314,0,0,1.24656,2068.5,-78.8549)">
                <g transform="matrix(50,0,0,50,822.105,202.303)">
                </g>
                <text x="481.09px" y="202.303px" style="font-family:'MalgunGothic', 'Malgun Gothic', sans-serif;font-size:50px;fill:rgb(2,31,93);">45 99101-5678</text>
            </g>
        </g>
        <g transform="matrix(0.499997,0,0,1,9856.23,6838.29)">
            <g transform="matrix(1.5992,0,0,0.799595,2495.6,63.5515)">
                <g transform="matrix(50,0,0,50,1175.06,202.303)">
                </g>
                <text x="481.09px" y="202.303px" style="font-family:'MalgunGothic', 'Malgun Gothic', sans-serif;font-size:50px;fill:rgb(2,31,93);">contat<tspan x="623.643px 653.599px " y="202.303px 202.303px ">o@</tspan>efat<tspan x="787.974px 814.732px " y="202.303px 202.303px ">ec</tspan>nologia.com.br</text>
            </g>
        </g>
        <g transform="matrix(0.499997,0,0,1,9856.23,6838.29)">
            <g transform="matrix(1.5992,0,0,0.799595,2498.52,125.199)">
                <g transform="matrix(50,0,0,50,1072.28,202.303)">
                </g>
                <text x="481.09px" y="202.303px" style="font-family:'MalgunGothic', 'Malgun Gothic', sans-serif;font-size:50px;fill:rgb(2,31,93);">www<tspan x="588.853px 599.791px " y="202.303px 202.303px ">.e</tspan>fat<tspan x="685.191px 711.949px " y="202.303px 202.303px ">ec</tspan>nologia.com.br</text>
            </g>
        </g>
        <g transform="matrix(0.499997,0,0,1,9856.23,6838.29)">
            <g transform="matrix(14.9849,0,0,7.4924,-6261.78,-2009.11)">
                <path d="M633.895,288.607C633.895,290.502 632.358,292.038 630.464,292.038C628.57,292.038 627.034,290.502 627.034,288.607C627.034,286.713 628.57,285.178 630.464,285.178C632.358,285.178 633.895,286.713 633.895,288.607Z" style="fill:white;fill-rule:nonzero;stroke:rgb(0,100,142);stroke-width:0.13px;"/>
            </g>
        </g>
        <g transform="matrix(0.499997,0,0,1,9856.23,6838.29)">
            <g transform="matrix(14.9849,0,0,7.4924,-6261.78,-2009.11)">
                <path d="M633.895,296.325C633.895,298.22 632.358,299.755 630.464,299.755C628.57,299.755 627.034,298.22 627.034,296.325C627.034,294.43 628.57,292.895 630.464,292.895C632.358,292.895 633.895,294.43 633.895,296.325Z" style="fill:white;fill-rule:nonzero;stroke:rgb(0,100,142);stroke-width:0.13px;"/>
            </g>
        </g>
        <g transform="matrix(0.499997,0,0,1,9856.23,6838.29)">
            <g transform="matrix(14.9849,0,0,7.4924,-6261.78,-1950.85)">
                <path d="M633.895,296.325C633.895,298.22 632.358,299.755 630.464,299.755C628.57,299.755 627.034,298.22 627.034,296.325C627.034,294.43 628.57,292.895 630.464,292.895C632.358,292.895 633.895,294.43 633.895,296.325Z" style="fill:white;fill-rule:nonzero;stroke:rgb(0,100,142);stroke-width:0.13px;"/>
            </g>
        </g>
        <g transform="matrix(0.499997,0,0,1,9856.23,6838.29)">
            <g transform="matrix(14.9849,0,0,7.4924,-6261.78,-2009.11)">
                <path d="M630.462,296.621L629.083,295.559L631.844,295.559L630.462,296.621Z" style="fill:rgb(0,56,104);fill-rule:nonzero;"/>
            </g>
        </g>
        <g transform="matrix(0.499997,0,0,1,9856.23,6838.29)">
            <g transform="matrix(14.9849,0,0,7.4924,-6261.78,-2009.11)">
                <path d="M629.982,296.532L628.868,297.443L628.868,295.676L629.982,296.532Z" style="fill:rgb(0,56,104);fill-rule:nonzero;"/>
            </g>
        </g>
        <g transform="matrix(0.499997,0,0,1,9856.23,6838.29)">
            <g transform="matrix(14.9849,0,0,7.4924,-6261.78,-2009.11)">
                <path d="M630.164,296.672L630.462,296.902L630.773,296.662L631.866,297.566L629.068,297.566L630.164,296.672Z" style="fill:rgb(0,56,104);fill-rule:nonzero;"/>
            </g>
        </g>
        <g transform="matrix(0.499997,0,0,1,9856.23,6838.29)">
            <g transform="matrix(14.9849,0,0,7.4924,-6261.78,-2009.11)">
                <path d="M630.955,296.521L632.061,295.674L632.061,297.44L630.955,296.521Z" style="fill:rgb(0,56,104);fill-rule:nonzero;"/>
            </g>
        </g>
        <g transform="matrix(0.499997,0,0,1,9856.23,6838.29)">
            <g transform="matrix(2.60365,0,0,1.30182,3154.42,253.713)">
                <path d="M14.982,19.61C15.436,18.91 15.891,18.01 16.218,16.855C16.973,17.145 17.491,17.491 17.809,17.764C16.994,18.573 16.019,19.202 14.945,19.609L14.982,19.609L14.982,19.61ZM6.182,17.755C6.518,17.482 7.027,17.145 7.782,16.845C8.118,18.009 8.555,18.909 9.018,19.609C7.96,19.193 7.001,18.562 6.2,17.755L6.182,17.755ZM16.818,11.091C16.79,10.281 16.708,9.472 16.573,8.673C17.573,8.309 18.3,7.873 18.809,7.473C19.519,8.559 19.958,9.8 20.091,11.091L16.818,11.091ZM7.845,6.891C7.316,6.696 6.817,6.427 6.364,6.091C7.13,5.358 8.032,4.781 9.018,4.391C8.591,5.027 8.173,5.845 7.836,6.891L7.846,6.891L7.845,6.891ZM14.982,4.391C15.969,4.779 16.87,5.357 17.636,6.091C17.182,6.426 16.684,6.695 16.155,6.891C15.884,6.005 15.486,5.163 14.973,4.391L14.982,4.391ZM14.8,9.118C14.89,9.718 14.982,10.364 15,11.091L9,11.091C9.027,10.364 9.09,9.709 9.182,9.118C11.037,9.452 12.936,9.452 14.791,9.118L14.8,9.118ZM12,7.545C11.09,7.545 10.29,7.473 9.61,7.364C10.336,5.127 11.464,4.227 12,3.909C12.518,4.227 13.655,5.136 14.382,7.364C13.594,7.487 12.798,7.548 12,7.545ZM5.182,7.473C5.862,7.99 6.62,8.395 7.427,8.673C7.292,9.473 7.21,10.28 7.182,11.091L3.872,11.091C4.016,9.797 4.468,8.556 5.191,7.473L5.181,7.473L5.182,7.473ZM3.872,12.909L7.182,12.909C7.218,13.691 7.272,14.409 7.382,15.064C6.544,15.352 5.763,15.782 5.072,16.336C4.418,15.299 4.008,14.127 3.872,12.909ZM12,14.364C10.91,14.364 9.973,14.454 9.155,14.6C9.075,14.04 9.023,13.476 9,12.91L15,12.91C14.973,13.518 14.927,14.09 14.855,14.6C13.913,14.43 12.957,14.348 12,14.355L12,14.364ZM12,20.091C11.455,19.764 10.255,18.791 9.527,16.364C10.344,16.231 11.172,16.17 12,16.182C12.955,16.182 13.773,16.245 14.482,16.364C13.755,18.818 12.555,19.764 12.009,20.091L12,20.091ZM18.927,16.327C18.237,15.772 17.456,15.342 16.618,15.055C16.728,14.344 16.794,13.628 16.818,12.909L20.128,12.909C19.991,14.124 19.581,15.293 18.928,16.327L18.927,16.327ZM12,2C6.477,2 2,6.477 2,12C2,17.523 6.477,22 12,22C17.523,22 22,17.523 22,12C22,6.477 17.523,2 12,2Z" style="fill:rgb(0,56,104);"/>
            </g>
        </g>
        <g transform="matrix(0.499997,0,0,1,9856.23,6838.29)">
            <g transform="matrix(0.553192,0,0,0.276594,2728.63,77.3457)">
                <path d="M845.867,283.02C844.797,282.485 839.537,279.897 838.556,279.54C837.575,279.184 836.862,279.005 836.148,280.076C835.436,281.146 833.385,283.556 832.761,284.27C832.137,284.983 831.513,285.073 830.443,284.537C829.373,284.002 825.926,282.873 821.839,279.228C818.658,276.393 816.511,272.89 815.887,271.819C815.263,270.748 815.82,270.169 816.356,269.636C816.837,269.157 817.426,268.387 817.961,267.762C818.496,267.138 818.674,266.691 819.03,265.978C819.388,265.264 819.209,264.639 818.941,264.104C818.674,263.568 816.534,258.304 815.643,256.162C814.774,254.077 813.893,254.359 813.235,254.326C812.612,254.295 811.898,254.289 811.185,254.289C810.472,254.289 809.313,254.556 808.332,255.627C807.351,256.698 804.587,259.285 804.587,264.55C804.587,269.814 808.421,274.9 808.956,275.614C809.491,276.328 816.5,287.132 827.233,291.765C829.786,292.867 831.779,293.525 833.333,294.018C835.896,294.832 838.229,294.717 840.072,294.442C842.127,294.135 846.402,291.854 847.294,289.355C848.186,286.857 848.186,284.716 847.918,284.27C847.65,283.824 846.937,283.556 845.867,283.02ZM826.345,309.667L826.33,309.667C819.944,309.665 813.681,307.95 808.216,304.708L806.916,303.936L793.446,307.469L797.042,294.34L796.195,292.994C792.633,287.329 790.751,280.782 790.754,274.059C790.762,254.442 806.728,238.482 826.359,238.482C835.865,238.486 844.802,242.192 851.521,248.916C858.24,255.642 861.938,264.581 861.936,274.088C861.927,293.707 845.961,309.667 826.345,309.667ZM856.635,243.807C848.551,235.715 837.799,231.257 826.345,231.252C802.742,231.252 783.533,250.454 783.524,274.057C783.521,281.601 785.493,288.965 789.24,295.457L783.165,317.639L805.864,311.686C812.119,315.097 819.161,316.894 826.327,316.897L826.345,316.897C826.347,316.897 826.344,316.897 826.345,316.897C849.944,316.897 869.155,297.693 869.165,274.091C869.169,262.653 864.72,251.897 856.635,243.807Z" style="fill:rgb(0,56,104);"/>
            </g>
        </g>
    </g>
</svg>
