<?xml version="1.0" encoding="UTF-8" standalone="no"?>
<!DOCTYPE svg PUBLIC "-//W3C//DTD SVG 1.1//EN" "http://www.w3.org/Graphics/SVG/1.1/DTD/svg11.dtd">
<svg width="100%" height="100%" viewBox="0 0 133 67" version="1.1" xmlns="http://www.w3.org/2000/svg" xmlns:xlink="http://www.w3.org/1999/xlink" xml:space="preserve" xmlns:serif="http://www.serif.com/" style="fill-rule:evenodd;clip-rule:evenodd;stroke-linejoin:round;stroke-miterlimit:2;">
    <g transform="matrix(1,0,0,1,-1257.17,490.348)">
        <g transform="matrix(0.347686,0,0,0.32952,592.324,-531.944)">
            <g transform="matrix(4.16667,0,0,4.39638,0,-3298.84)">
                <path d="M468.155,786.766C468.038,786.766 467.103,786.766 467.103,787.927L467.103,791.078L461.194,797.877L461.194,786.642C461.194,783.189 464.057,779.967 466.995,779.967L489.146,779.967C489.146,783.546 486.302,786.766 483.309,786.766L468.155,786.766Z" style="fill:rgb(0,31,97);fill-rule:nonzero;"/>
            </g>
            <g transform="matrix(4.16667,0,0,4.39638,0,-63.3078)">
                <g transform="matrix(0.959343,0,0,1,19.3281,0)">
                    <text x="475.392px" y="84.764px" style="font-family:'Majoram-Bold', 'Majoram';font-weight:700;font-size:11.862px;fill:rgb(0,31,97);">Tecnologia</text>
                </g>
            </g>
            <g transform="matrix(4.16667,0,0,4.39638,0,-3153.26)">
                <clipPath id="_clip1">
                    <rect x="461.194" y="758.131" width="15.84" height="9.237"/>
                </clipPath>
                <g clip-path="url(#_clip1)">
                    <path d="M461.194,764.76L461.194,764.638C461.194,762.848 461.516,761.317 462.16,760.042C462.803,758.768 461.456,758.131 462.36,758.131L477.034,758.131L477.034,758.253C477.034,760.042 476.712,761.574 476.068,762.848C475.425,764.123 474.644,764.76 473.726,764.76L461.194,764.76ZM465.139,775.7C464.974,775.7 464.83,775.808 464.707,776.025C464.598,776.242 464.543,776.513 464.543,776.838L464.543,779.929L477.034,779.929C477.034,781.8 476.712,783.386 476.068,784.687C475.425,785.962 474.644,786.599 473.726,786.599L461.194,786.599L461.194,775.578C461.194,773.761 461.516,772.216 462.16,770.941C462.803,769.667 463.577,769.03 464.481,769.03L477.034,769.03C477.034,770.901 476.712,772.487 476.068,773.788C475.425,775.063 474.644,775.7 473.726,775.7L465.139,775.7Z" style="fill:rgb(0,31,97);fill-rule:nonzero;"/>
                </g>
            </g>
            <g transform="matrix(4.16667,0,0,4.39638,0,-63.3078)">
                <clipPath id="_clip2">
                    <rect x="461.194" y="63.51" width="27.116" height="9.237"/>
                </clipPath>
                <g clip-path="url(#_clip2)">
                    <g transform="matrix(1,0,0,1,0,-689.073)">
                        <clipPath id="_clip3">
                            <rect x="461.194" y="752.583" width="8.913" height="3.505"/>
                        </clipPath>
                        <g clip-path="url(#_clip3)">
                            <path d="M470.077,771.176C470.077,771.433 470.222,771.658 470.511,771.851C470.799,772.022 477.261,772.063 477.695,772.063C477.695,772.063 480.315,753.086 482.048,754.092C483.745,755.098 484.594,756.319 484.594,757.753L484.594,777.342L469.915,777.342C467.495,777.342 461.088,778.84 459.391,777.834C457.693,776.828 461.194,773.617 461.194,772.204C461.206,765.291 461.243,757.814 461.194,752.583C463.686,752.583 467.213,752.123 467.301,754.376C467.366,756.048 469.392,755.376 469.392,756.811L470.077,771.176Z" style="fill:rgb(0,31,97);fill-rule:nonzero;"/>
                        </g>
                    </g>
                    <g transform="matrix(1,0,0,1,0,-724.864)">
                        <path d="M461.194,790.982L461.194,791.104C461.194,792.894 461.745,794.425 462.847,795.7C463.949,796.974 465.274,797.611 466.821,797.611L488.31,797.611L488.31,797.489C488.31,795.7 487.759,794.168 486.657,792.894C485.555,791.619 484.219,790.982 482.648,790.982L461.194,790.982ZM467.947,780.042C467.665,780.042 467.419,779.934 467.208,779.717C467.02,779.5 466.927,779.229 466.927,778.904L466.927,775.813L488.31,775.813C488.31,773.942 487.759,772.356 486.657,771.055C485.555,769.78 484.219,769.143 482.648,769.143L461.194,769.143L461.194,780.164C461.194,781.981 461.745,783.526 462.847,784.801C463.949,786.075 465.274,786.712 466.821,786.712L488.31,786.712C488.31,784.841 487.759,783.255 486.657,781.954C485.555,780.679 484.219,780.042 482.648,780.042L467.947,780.042Z" style="fill:rgb(0,31,97);fill-rule:nonzero;"/>
                    </g>
                </g>
            </g>
            <g transform="matrix(3.04568,0,0,3.48255,561.087,-2456.23)">
                <clipPath id="_clip4">
                    <rect x="500.528" y="758.131" width="16.949" height="9.237"/>
                </clipPath>
                <g clip-path="url(#_clip4)">
                    <path d="M500.528,764.76L500.528,764.638C500.528,762.848 500.873,761.317 501.562,760.042C502.25,758.768 503.078,758.131 504.046,758.131L517.478,758.131L517.478,758.253C517.478,760.042 517.133,761.574 516.444,762.848C515.756,764.123 514.92,764.76 513.938,764.76L500.528,764.76ZM504.749,775.7C504.573,775.7 504.419,775.808 504.288,776.025C504.17,776.242 504.112,776.513 504.112,776.838L504.112,779.929L517.478,779.929C517.478,781.8 517.133,783.386 516.444,784.687C515.756,785.962 514.92,786.599 513.938,786.599L500.528,786.599L500.528,775.578C500.528,773.761 500.873,772.216 501.562,770.941C502.25,769.667 503.078,769.03 504.046,769.03L517.478,769.03C517.478,770.901 517.133,772.487 516.444,773.788C515.756,775.063 514.92,775.7 513.938,775.7L504.749,775.7Z" style="fill:rgb(0,31,97);fill-rule:nonzero;"/>
                </g>
            </g>
            <g transform="matrix(4.16667,0,0,4.39638,0,-3108.2)">
                <clipPath id="_clip5">
                    <rect x="528.981" y="753.007" width="15.076" height="9.237"/>
                </clipPath>
                <g clip-path="url(#_clip5)">
                    <path d="M528.981,759.636L528.981,759.514C528.981,757.724 529.288,756.193 529.9,754.918C530.513,753.644 531.25,753.007 532.11,753.007L544.058,753.007L544.058,753.129C544.058,754.918 543.751,756.45 543.139,757.724C542.526,758.999 541.783,759.636 540.909,759.636L528.981,759.636ZM532.736,770.576C532.579,770.576 532.442,770.684 532.325,770.901C532.221,771.118 532.169,771.389 532.169,771.714L532.169,774.805L544.058,774.805C544.058,776.676 543.751,778.262 543.139,779.564C542.526,780.838 541.783,781.475 540.909,781.475L528.981,781.475L528.981,770.454C528.981,768.637 529.288,767.092 529.9,765.818C530.513,764.543 531.25,763.906 532.11,763.906L544.058,763.906C544.058,765.777 543.751,767.363 543.139,768.664C542.526,769.939 541.783,770.576 540.909,770.576L532.736,770.576Z" style="fill:rgb(0,31,97);fill-rule:nonzero;"/>
                </g>
            </g>
            <g transform="matrix(4.16667,0,0,4.39638,0,-3255.99)">
                <path d="M491.652,798.777L491.652,784.049C491.652,780.003 493.032,776.541 495.792,773.665C498.551,770.769 501.881,769.321 505.781,769.321L519.911,769.321C519.911,771.274 519.135,773.147 517.754,774.528C516.373,775.909 514.5,776.685 512.547,776.685L505.781,776.685C503.831,776.685 502.166,777.414 500.786,778.871C499.407,780.31 498.717,782.035 498.717,784.049L498.717,791.714C498.717,793.587 497.973,795.384 496.648,796.708C495.323,798.033 493.527,798.777 491.653,798.777L491.652,798.777Z" style="fill:rgb(0,31,97);fill-rule:nonzero;"/>
            </g>
            <g transform="matrix(4.16667,0,0,4.39638,0,-3249.81)">
                <path d="M523.751,794.519C523.515,794.989 523.244,795.417 522.937,795.804C522.654,796.163 522.371,796.467 522.088,796.716C521.829,796.937 521.499,797.131 521.098,797.296C520.72,797.462 520.39,797.587 520.107,797.669C519.824,797.725 519.447,797.78 518.975,797.835C518.503,797.863 518.126,797.877 517.843,797.877C517.584,797.877 517.183,797.863 516.64,797.835L515.437,797.835L529.73,768.815L536.416,768.815L550.708,797.835L549.505,797.835C548.963,797.863 548.55,797.877 548.267,797.877C548.008,797.877 547.642,797.863 547.17,797.835C546.699,797.78 546.321,797.725 546.038,797.669C545.755,797.587 545.413,797.462 545.012,797.296C544.635,797.131 544.305,796.937 544.022,796.716C543.762,796.467 543.479,796.163 543.173,795.804C542.89,795.417 542.63,794.989 542.395,794.519L533.055,775.573L523.751,794.519Z" style="fill:rgb(0,31,97);fill-rule:nonzero;"/>
            </g>
        </g>
    </g>
</svg>
